<svg xmlns="http://www.w3.org/2000/svg" width="104" height="20" viewBox="0 0 104 20" preserveAspectRatio="none">
  <g fill="white" transform="matrix(2.02658885 0 0 1 2 0)">
    <path d="M1.920 15.500L3.152 12.716L8.816 12.716L10.048 15.500L12 15.500L7.216 4.780L4.784 4.780L0 15.500ZM5.296 7.900L5.920 6.380L6.048 6.380L6.672 7.900L8.128 11.164L3.840 11.164Z"/>
    <path d="M14.704 15.500L14.704 13.212L14.816 13.212C15.152 14.796 16.320 15.660 18.128 15.660C20.656 15.660 22.016 13.980 22.016 11.532C22.016 9.052 20.672 7.388 18.224 7.388C16.320 7.388 15.264 8.364 14.944 9.708L14.848 9.708L14.848 4.780L13.120 4.780L13.120 15.500ZM14.848 11.612L14.848 11.484C14.848 9.788 15.824 8.956 17.616 8.956C19.312 8.956 20.288 9.612 20.288 11.532C20.288 13.436 19.328 14.076 17.584 14.076C15.872 14.076 14.848 13.276 14.848 11.612Z"/>
    <path d="M27.600 15.660C30.256 15.660 32.032 13.980 32.032 11.532C32.032 9.052 30.256 7.388 27.600 7.388C24.960 7.388 23.184 9.052 23.184 11.532C23.184 13.980 24.960 15.660 27.600 15.660ZM27.600 14.124C25.680 14.124 24.880 13.212 24.880 11.532C24.880 9.836 25.680 8.908 27.600 8.908C29.536 8.908 30.336 9.836 30.336 11.532C30.336 13.212 29.536 14.124 27.600 14.124Z"/>
    <path d="M36.912 15.660C38.960 15.660 40.016 14.380 40.272 13.036L40.368 13.036L40.368 15.500L41.952 15.500L41.952 7.548L40.240 7.548L40.240 11.484C40.240 13.212 39.424 14.108 37.664 14.108C35.984 14.108 35.296 13.356 35.296 11.868L35.296 7.548L33.584 7.548L33.584 12.332C33.584 14.172 34.672 15.660 36.912 15.660Z"/>
    <path d="M49.056 15.500L49.056 13.948L47.616 13.948C46.624 13.948 46.176 13.692 46.176 12.716L46.176 8.988L49.056 8.988L49.056 7.548L46.176 7.548L46.176 5.804L44.464 5.804L44.464 7.548L43.120 7.548L43.120 8.988L44.464 8.988L44.464 12.812C44.464 14.748 45.520 15.500 47.232 15.500Z"/>
  </g>
</svg>
